# xmcd
#
# Track frame offsets:
#	150
#	13343
#	27410
#	43968
#	65130
#	92405
#	118355
#	138330
#	154805
#	170710
#	189518
#
# Disc length: 3015 seconds
#
# Revision: 1
# Processed by: cddbd v1.4PL0 Copyright (c) Steve Scherf et al.
# Submitted via: audiograbber 1.81.03
#
DISCID=a20bc50b
DTITLE=Elvis Costello - Every Day I Write A Book
DYEAR=1900
DGENRE=Live
TTITLE0=Let Them All Talk
TTITLE1=Greatest Thing
TTITLE2=Girls Talk
TTITLE3=Lipstick Vogue
TTITLE4=Watching The Detectives
TTITLE5=Club Land
TTITLE6=Every Day I Write A Book
TTITLE7=The Only Flame In Town
TTITLE8=Getting Mighty Crowded
TTITLE9=Allison
TTITLE10=Pump It Up
EXTD=
EXTT0=
EXTT1=
EXTT2=
EXTT3=
EXTT4=
EXTT5=
EXTT6=
EXTT7=
EXTT8=
EXTT9=
EXTT10=
PLAYORDER=
